HIERARCHY
ROOT hip
{
	OFFSET 0.000000 -102.168968 0.000000
	CHANNELS 6 Xposition Yposition Zposition Zrotation Xrotation Yrotation
	JOINT abdomen
	{
		OFFSET 0.000000 6.096001 0.000000
		CHANNELS 3 Zrotation Xrotation Yrotation
		JOINT chest
		{
			OFFSET 0.000000 15.118080 -1.219200
			CHANNELS 3 Zrotation Xrotation Yrotation
			JOINT neck
			{
				OFFSET 0.000000 18.287994 -0.487680
				CHANNELS 3 Zrotation Xrotation Yrotation
				JOINT head
				{
					OFFSET 0.000000 5.608322 0.000000
					CHANNELS 3 Zrotation Xrotation Yrotation
					End Site
					{
						OFFSET 11.948160 -6.339828 -0.975360
					}
				}
			}
			JOINT lCollar
			{
				OFFSET 6.096000 11.948166 -1.463040
				CHANNELS 3 Zrotation Xrotation Yrotation
				JOINT lShldr
				{
					OFFSET 5.852160 0.000000 0.000000
					CHANNELS 3 Zrotation Xrotation Yrotation
					JOINT lForeArm
					{
						OFFSET 18.044161 0.000000 0.000000
						CHANNELS 3 Zrotation Xrotation Yrotation
						JOINT lHand
						{
							OFFSET 15.118080 0.000000 0.000000
							CHANNELS 3 Zrotation Xrotation Yrotation
							End Site
							{
								OFFSET -11.948160 -6.339828 -0.975360
							}
						}
					}
				}
			}
			JOINT rCollar
			{
				OFFSET -6.339839 11.948166 -1.463040
				CHANNELS 3 Zrotation Xrotation Yrotation
				JOINT rShldr
				{
					OFFSET -5.608321 0.000000 0.000000
					CHANNELS 3 Zrotation Xrotation Yrotation
					JOINT rForeArm
					{
						OFFSET -18.287998 0.000000 0.000000
						CHANNELS 3 Zrotation Xrotation Yrotation
						JOINT rHand
						{
							OFFSET -14.874243 0.000000 0.000000
							CHANNELS 3 Zrotation Xrotation Yrotation
							End Site
							{
								OFFSET 5.852160 -33.649918 2.438400
							}
						}
					}
				}
			}
		}
	}
	JOINT lThigh
	{
		OFFSET 9.509760 -2.926079 2.438400
		CHANNELS 3 Zrotation Xrotation Yrotation
		JOINT lShin
		{
			OFFSET -3.657600 -35.844475 0.000000
			CHANNELS 3 Zrotation Xrotation Yrotation
			JOINT lFoot
			{
				OFFSET 0.000000 -34.381443 -2.194560
				CHANNELS 3 Zrotation Xrotation Yrotation
				End Site
				{
					OFFSET -5.852160 -33.649918 2.438400
				}
			}
		}
	}
	JOINT rThigh
	{
		OFFSET -9.509760 -2.926079 2.438400
		CHANNELS 3 Zrotation Xrotation Yrotation
		JOINT rShin
		{
			OFFSET 3.657600 -35.844475 0.000000
			CHANNELS 3 Zrotation Xrotation Yrotation
			JOINT rFoot
			{
				OFFSET 0.000000 -34.381443 -2.194560
				CHANNELS 3 Zrotation Xrotation Yrotation
				End Site
				{
					OFFSET 0.000000 -4.389120 8.290560
				}
			}
		}
	}
}
MOTION
Frames:	19
Frame Time:	0.05
0.000000 0.000000 0.000000 0.000000 0.060000 0.000000 -0.722669 -0.281770 -0.580483 -0.624626 -0.369778 -0.453798 0.000000 0.060000 0.000000 0.000000 0.060000 0.000000 -7.999890 0.018026 0.279244 0.000000 0.060000 -4.000000 0.000000 0.060000 -7.999999 -6.999999 0.060000 0.000000 7.999999 -0.134249 0.000000 -0.228870 -0.388127 4.000122 0.000000 0.060000 7.999999 6.999999 0.060000 0.000000 5.008757 -5.074244 0.486724 -2.012557 10.275527 0.267614 5.580678 14.167145 0.848798 -5.463597 -5.070829 -0.654990 2.359993 10.482846 -0.275940 -5.152123 17.144726 -0.154826 
0.000000 0.071053 0.000000 0.000000 0.000000 0.000000 -0.722669 -0.341770 -0.580483 -0.624626 -0.429778 -0.453798 0.000000 0.000000 0.000000 0.000000 0.000000 0.000000 -7.999890 -0.041974 0.279244 0.000000 0.000000 -4.000000 0.000000 0.000000 -7.999999 -6.999999 0.000000 0.000000 7.999999 -0.194249 0.000000 -0.228870 -0.448127 4.000122 0.000000 0.000000 7.999999 6.999999 0.000000 0.000000 5.008757 -5.134244 0.486724 -2.012557 10.215527 0.267614 5.580678 14.107144 0.848798 -5.463597 -5.130829 -0.654990 2.359993 10.422846 -0.275940 -5.152123 17.084726 -0.154826 
0.000000 -0.339940 0.000000 0.000000 0.000000 0.000000 -0.722669 -0.341770 -0.580483 -0.624626 -0.429778 -0.453798 0.000000 0.000000 0.000000 0.000000 0.000000 0.000000 -7.999890 -0.041974 0.279244 0.000000 0.000000 -4.000000 0.000000 0.000000 -7.999999 -6.999999 0.000000 0.000000 7.999999 -0.194249 0.000000 -0.228870 -0.448127 4.000122 0.000000 0.000000 7.999999 6.999999 0.000000 0.000000 5.008757 -5.134244 0.486724 -2.012557 10.215527 0.267614 5.580678 14.107144 0.848798 -5.493485 -5.549278 -0.657331 2.313957 11.441201 -0.314898 -5.152123 17.084726 -0.154826 
0.000000 -1.516228 0.000000 0.000000 0.000000 0.000000 -0.722669 -0.341770 -0.580483 -0.624626 -0.429778 -0.453798 0.000000 0.000000 0.000000 0.000000 0.000000 0.000000 -7.999890 -0.041974 0.279244 0.000000 0.000000 -4.000000 0.000000 0.000000 -7.999999 -6.999999 0.000000 0.000000 7.999999 -0.194249 0.000000 -0.228870 -0.448127 4.000122 0.000000 0.000000 7.999999 6.999999 0.000000 0.000000 5.008757 -5.134244 0.486724 -2.012557 10.215527 0.267614 5.580678 14.107144 0.848798 -5.580905 -6.746680 -0.666488 2.184280 14.356139 -0.417238 -5.152123 17.084726 -0.154826 
0.000000 -3.372780 0.000000 0.000000 0.000000 0.000000 -0.722669 -0.341770 -0.580483 -0.624626 -0.429778 -0.453798 0.000000 0.000000 0.000000 0.000000 0.000000 0.000000 -7.999890 -0.041974 0.279244 0.000000 0.000000 -4.000000 0.000000 0.000000 -7.999999 -6.999999 0.000000 0.000000 7.999999 -0.194249 0.000000 -0.228870 -0.448127 4.000122 0.000000 0.000000 7.999999 6.999999 0.000000 0.000000 5.008757 -5.134244 0.486724 -2.012557 10.215527 0.267614 5.580678 14.107144 0.848798 -5.724801 -8.635845 -0.688602 1.983928 18.957722 -0.551319 -5.152123 17.084726 -0.154826 
0.000000 -5.824563 0.000000 0.000000 0.000000 0.000000 -0.722669 -0.341770 -0.580483 -0.624626 -0.429778 -0.453798 0.000000 0.000000 0.000000 0.000000 0.000000 0.000000 -7.999890 -0.041974 0.279244 0.000000 0.000000 -4.000000 0.000000 0.000000 -7.999999 -6.999999 0.000000 0.000000 7.999999 -0.194249 0.000000 -0.228870 -0.448127 4.000122 0.000000 0.000000 7.999999 6.999999 0.000000 0.000000 5.008757 -5.134244 0.486724 -2.012557 10.215527 0.267614 5.580678 14.107144 0.848798 -5.926764 -11.129280 -0.733002 1.721426 25.035988 -0.676393 -5.152123 17.084726 -0.154826 
0.000000 -8.786542 0.000000 0.000000 0.000000 0.000000 -0.722669 -0.341770 -0.580483 -0.624626 -0.429778 -0.453798 0.000000 0.000000 0.000000 0.000000 0.000000 0.000000 -7.999890 -0.041974 0.279244 0.000000 0.000000 -4.000000 0.000000 0.000000 -7.999999 -6.999999 0.000000 0.000000 7.999999 -0.194249 0.000000 -0.228870 -0.448127 4.000122 0.000000 0.000000 7.999999 6.999999 0.000000 0.000000 5.008757 -5.134244 0.486724 -2.012557 10.215527 0.267614 5.580678 14.107144 0.848798 -6.190703 -14.139238 -0.811551 1.393889 32.380573 -0.744039 -5.152123 17.084726 -0.154826 
0.000000 -12.173687 0.000000 0.000000 0.000000 0.000000 -0.722669 -0.341770 -0.580483 -0.624626 -0.429778 -0.453798 0.000000 0.000000 0.000000 0.000000 0.000000 0.000000 -7.999890 -0.041974 0.279244 0.000000 0.000000 -4.000000 0.000000 0.000000 -7.999999 -6.999999 0.000000 0.000000 7.999999 -0.194249 0.000000 -0.228870 -0.448127 4.000122 0.000000 0.000000 7.999999 6.999999 0.000000 0.000000 5.008757 -5.134244 0.486724 -2.012557 10.215527 0.267614 5.580678 14.107144 0.848798 -6.522700 -17.577755 -0.938221 0.976868 40.780376 -0.692398 -5.152123 17.084726 -0.154826 
0.000000 -15.900961 0.000000 0.000000 0.000000 0.000000 -0.722669 -0.341770 -0.580483 -0.624626 -0.429778 -0.453798 0.000000 0.000000 0.000000 0.000000 0.000000 0.000000 -7.999890 -0.041974 0.279244 0.000000 0.000000 -4.000000 0.000000 0.000000 -7.999999 -6.999999 0.000000 0.000000 7.999999 -0.194249 0.000000 -0.228870 -0.448127 4.000122 0.000000 0.000000 7.999999 6.999999 0.000000 0.000000 5.008757 -5.134244 0.486724 -2.012557 10.215527 0.267614 5.580678 14.107144 0.848798 -6.930938 -21.356674 -1.128796 0.402086 50.023190 -0.425003 -5.152123 17.084726 -0.154826 
0.000000 -19.883337 0.000000 0.000000 0.000000 0.000000 -0.722669 -0.341770 -0.580483 -0.624626 -0.429778 -0.453798 0.000000 0.000000 0.000000 0.000000 0.000000 0.000000 -7.999890 -0.041974 0.279244 0.000000 0.000000 -4.000000 0.000000 0.000000 -7.999999 -6.999999 0.000000 0.000000 7.999999 -0.194249 0.000000 -0.228870 -0.448127 4.000122 0.000000 0.000000 7.999999 6.999999 0.000000 0.000000 5.008757 -5.134244 0.486724 -2.012557 10.215527 0.267614 5.580678 14.107144 0.848798 -7.425628 -25.387674 -1.400620 -0.510326 59.894653 0.257755 -5.152123 17.084726 -0.154826 
0.000000 -24.035776 0.000000 0.000000 0.000000 0.000000 -0.722669 -0.341770 -0.580483 -0.624626 -0.429778 -0.453798 0.000000 0.000000 0.000000 0.000000 0.000000 0.000000 -7.999890 -0.041974 0.279244 0.000000 0.000000 -4.000000 0.000000 0.000000 -7.999999 -6.999999 0.000000 0.000000 7.999999 -0.194249 0.000000 -0.228870 -0.448127 4.000122 0.000000 0.000000 7.999999 6.999999 0.000000 0.000000 5.008757 -5.134244 0.486724 -2.012557 10.215527 0.267614 5.580678 14.107144 0.848798 -8.018808 -29.582304 -1.772242 -2.336395 70.173759 1.944607 -5.152123 17.084726 -0.154826 
0.000000 -28.273251 0.000000 0.000000 0.000000 0.000000 -0.722669 -0.341770 -0.580483 -0.624626 -0.429778 -0.453798 0.000000 0.000000 0.000000 0.000000 0.000000 0.000000 -7.999890 -0.041974 0.279244 0.000000 0.000000 -4.000000 0.000000 0.000000 -7.999999 -6.999999 0.000000 0.000000 7.999999 -0.194249 0.000000 -0.228870 -0.448127 4.000122 0.000000 0.000000 7.999999 6.999999 0.000000 0.000000 5.008757 -5.134244 0.486724 -2.012557 10.215527 0.267614 5.580678 14.107144 0.848798 -8.723871 -33.852043 -2.262821 -8.227078 80.598015 7.793467 -5.152123 17.084726 -0.154826 
0.000000 -32.510723 0.000000 0.000000 0.000000 0.000000 -0.722669 -0.341770 -0.580483 -0.624626 -0.429778 -0.453798 0.000000 0.000000 0.000000 0.000000 0.000000 0.000000 -7.999890 -0.041974 0.279244 0.000000 0.000000 -4.000000 0.000000 0.000000 -7.999999 -6.999999 0.000000 0.000000 7.999999 -0.194249 0.000000 -0.228870 -0.448127 4.000122 0.000000 0.000000 7.999999 6.999999 0.000000 0.000000 5.008757 -5.134244 0.486724 -2.012557 10.215527 0.267614 5.580678 14.107144 0.848798 -9.554497 -38.108421 -2.890963 -122.384804 87.765617 122.008804 -5.152123 17.084726 -0.154826 
0.000000 -36.663166 0.000000 0.000000 0.000000 0.000000 -0.722669 -0.341770 -0.580483 -0.624626 -0.429778 -0.453798 0.000000 0.000000 0.000000 0.000000 0.000000 0.000000 -7.999890 -0.041974 0.279244 0.000000 0.000000 -4.000000 0.000000 0.000000 -7.999999 -6.999999 0.000000 0.000000 7.999999 -0.194249 0.000000 -0.228870 -0.448127 4.000122 0.000000 0.000000 7.999999 6.999999 0.000000 0.000000 5.008757 -5.134244 0.486724 -2.012557 10.215527 0.267614 5.580678 14.107144 0.848798 -10.522603 -42.263222 -3.672597 -168.007690 78.260178 167.786072 -5.152123 17.084726 -0.154826 
0.000000 -40.645538 0.000000 0.000000 0.000000 0.000000 -0.722669 -0.341770 -0.580483 -0.624626 -0.429778 -0.453798 0.000000 0.000000 0.000000 0.000000 0.000000 0.000000 -7.999890 -0.041974 0.279244 0.000000 0.000000 -4.000000 0.000000 0.000000 -7.999999 -6.999999 0.000000 0.000000 7.999999 -0.194249 0.000000 -0.228870 -0.448127 4.000122 0.000000 0.000000 7.999999 6.999999 0.000000 0.000000 5.008757 -5.134244 0.486724 -2.012557 10.215527 0.267614 5.580678 14.107144 0.848798 -11.634685 -46.228840 -4.617270 -171.982010 68.446129 172.003860 -5.152123 17.084726 -0.154826 
0.000000 -44.372810 0.000000 0.000000 0.000000 0.000000 -0.722669 -0.341770 -0.580483 -0.624626 -0.429778 -0.453798 0.000000 0.000000 0.000000 0.000000 0.000000 0.000000 -7.999890 -0.041974 0.279244 0.000000 0.000000 -4.000000 0.000000 0.000000 -7.999999 -6.999999 0.000000 0.000000 7.999999 -0.194249 0.000000 -0.228870 -0.448127 4.000122 0.000000 0.000000 7.999999 6.999999 0.000000 0.000000 5.008757 -5.134244 0.486724 -2.012557 10.215527 0.267614 5.580678 14.107144 0.848798 -12.885821 -49.918846 -5.722166 -173.307083 59.226421 173.647797 -5.152123 17.084726 -0.154826 
0.000000 -47.759960 0.000000 0.000000 0.000000 0.000000 -0.722669 -0.341770 -0.580483 -0.624626 -0.429778 -0.453798 0.000000 0.000000 0.000000 0.000000 0.000000 0.000000 -7.999890 -0.041974 0.279244 0.000000 0.000000 -4.000000 0.000000 0.000000 -7.999999 -6.999999 0.000000 0.000000 7.999999 -0.194249 0.000000 -0.228870 -0.448127 4.000122 0.000000 0.000000 7.999999 6.999999 0.000000 0.000000 5.008757 -5.134244 0.486724 -2.012557 10.215527 0.267614 5.580678 14.107144 0.848798 -14.250878 -53.248871 -6.963349 -173.886368 50.842197 174.600571 -5.152123 17.084726 -0.154826 
0.000000 -50.721939 0.000000 0.000000 0.000000 0.000000 -0.722669 -0.341770 -0.580483 -0.624626 -0.429778 -0.453798 0.000000 0.000000 0.000000 0.000000 0.000000 0.000000 -7.999890 -0.041974 0.279244 0.000000 0.000000 -4.000000 0.000000 0.000000 -7.999999 -6.999999 0.000000 0.000000 7.999999 -0.194249 0.000000 -0.228870 -0.448127 4.000122 0.000000 0.000000 7.999999 6.999999 0.000000 0.000000 5.008757 -5.134244 0.486724 -2.012557 10.215527 0.267614 5.580678 14.107144 0.848798 -15.673345 -56.137627 -8.284738 -174.150818 43.510418 175.264130 -5.152123 17.084726 -0.154826 
0.000000 -53.173717 0.000000 0.000000 0.000000 0.000000 -0.722669 -0.341770 -0.580483 -0.624626 -0.429778 -0.453798 0.000000 0.000000 0.000000 0.000000 0.000000 0.000000 -7.999890 -0.041974 0.279244 0.000000 0.000000 -4.000000 0.000000 0.000000 -7.999999 -6.999999 0.000000 0.000000 7.999999 -0.194249 0.000000 -0.228870 -0.448127 4.000122 0.000000 0.000000 7.999999 6.999999 0.000000 0.000000 5.008757 -5.134244 0.486724 -2.012557 10.215527 0.267614 5.580678 14.107144 0.848798 -17.054838 -58.508030 -9.587813 -174.259048 37.442997 175.759720 -5.152123 17.084726 -0.154826 
